<svg width="18" height="18" viewBox="0 0 18 18" fill="none" xmlns="http://www.w3.org/2000/svg">
<path d="M9.53268 8.99993L13.0202 5.51243C13.1702 5.36243 13.1702 5.12993 13.0202 4.97993C12.8702 4.82993 12.6377 4.82993 12.4877 4.97993L9.00018 8.46743L5.51268 4.98743C5.36268 4.83743 5.13018 4.83743 4.98018 4.98743C4.83018 5.13743 4.83018 5.36993 4.98018 5.51993L8.46768 9.00743L4.98018 12.4949C4.83018 12.6449 4.83018 12.8774 4.98018 13.0274C5.05518 13.1024 5.15268 13.1399 5.24268 13.1399C5.33268 13.1399 5.43768 13.1024 5.50518 13.0274L8.99268 9.53993L12.4802 13.0274C12.5552 13.1024 12.6527 13.1399 12.7427 13.1399C12.8327 13.1399 12.9377 13.1024 13.0052 13.0274C13.1552 12.8774 13.1552 12.6449 13.0052 12.4949L9.51768 9.00743L9.53268 8.99993Z" fill="white"/>
</svg>
