<svg width="24" height="24" viewBox="0 0 24 24" fill="none" xmlns="http://www.w3.org/2000/svg">
<path d="M8.98 9.46997C8.44 9.46997 8 9.90997 8 10.45C8 10.99 8.44 11.43 8.98 11.43C9.52 11.43 9.96 10.99 9.96 10.45C9.96 9.90997 9.52 9.46997 8.98 9.46997Z" fill="#0D0D0E"/>
<path d="M15.02 9.46997C14.48 9.46997 14.04 9.90997 14.04 10.45C14.04 10.99 14.48 11.43 15.02 11.43C15.56 11.43 16 10.99 16 10.45C16 9.90997 15.56 9.46997 15.02 9.46997Z" fill="#0D0D0E"/>
<path d="M18.8401 6.77991C18.8201 6.62991 18.6901 6.50991 18.5401 6.50991H16.0201V5.91991C16.0201 4.83991 15.6001 3.82991 14.8401 3.08991C14.0901 2.32991 13.0801 1.90991 12.0001 1.90991C9.78015 1.90991 7.98015 3.70991 7.98015 5.92991V6.51991H5.28015C5.12015 6.51991 4.99015 6.63991 4.98015 6.78991L3.45015 21.2699C3.43015 21.4499 3.57015 21.5999 3.75015 21.5999H20.2401C20.4201 21.5999 20.5601 21.4399 20.5401 21.2599L18.8301 6.77991H18.8401ZM8.98015 5.91991C8.98015 4.25991 10.3301 2.89991 12.0001 2.89991C12.8101 2.89991 13.5601 3.20991 14.1301 3.78991C14.7001 4.34991 15.0201 5.10991 15.0201 5.91991V6.50991H8.98015V5.91991ZM4.53015 20.5999L5.91015 7.51991H17.9201L19.4601 20.5999H4.53015Z" fill="#0D0D0E"/>
</svg>
