<svg width="24" height="24" viewBox="0 0 24 24" fill="none" xmlns="http://www.w3.org/2000/svg">
<path d="M12.0271 9.583C11.7265 9.5828 11.4327 9.49349 11.1829 9.32635C10.933 9.15921 10.7384 8.92175 10.6235 8.64399C10.5086 8.36623 10.4786 8.06063 10.5374 7.76585C10.5961 7.47106 10.741 7.20032 10.9536 6.98784C11.1662 6.77537 11.4371 6.6307 11.7319 6.57213C12.0267 6.51356 12.3323 6.54372 12.61 6.6588C12.8877 6.77387 13.125 6.9687 13.292 7.21864C13.4589 7.46858 13.5481 7.76241 13.5481 8.063C13.5473 8.46606 13.3867 8.85237 13.1016 9.13728C12.8165 9.42219 12.4301 9.58247 12.0271 9.583ZM12.0271 7.344C11.8849 7.3442 11.746 7.38653 11.6279 7.46566C11.5098 7.54478 11.4178 7.65715 11.3635 7.78854C11.3092 7.91994 11.2951 8.06448 11.323 8.20388C11.3509 8.34329 11.4194 8.47131 11.52 8.57176C11.6206 8.67222 11.7487 8.7406 11.8882 8.76826C12.0276 8.79592 12.1721 8.78162 12.3034 8.72717C12.4348 8.67272 12.547 8.58057 12.626 8.46235C12.7049 8.34413 12.7471 8.20516 12.7471 8.063C12.7471 7.96849 12.7284 7.87492 12.6922 7.78762C12.656 7.70032 12.603 7.62101 12.5361 7.55424C12.4692 7.48746 12.3899 7.43452 12.3025 7.39844C12.2152 7.36237 12.1216 7.34387 12.0271 7.344Z" fill="#2F2D28"/>
<path d="M13.386 8.55101H13.362L13.117 8.53801C13.0111 8.53309 12.9114 8.48629 12.84 8.4079C12.7685 8.32952 12.7311 8.22596 12.736 8.12001C12.7468 8.01628 12.7954 7.92014 12.8724 7.84989C12.9495 7.77963 13.0497 7.74017 13.154 7.73901L13.409 7.75201C13.5151 7.75506 13.6156 7.80013 13.6885 7.8773C13.7614 7.95447 13.8006 8.05743 13.7975 8.16351C13.7945 8.2696 13.7494 8.37013 13.6722 8.44299C13.5951 8.51585 13.4921 8.55506 13.386 8.55201V8.55101Z" fill="#2F2D28"/>
<path d="M17.1831 15.243C17.0852 15.2437 16.9905 15.2085 16.9169 15.144C16.8432 15.0796 16.7958 14.9904 16.7834 14.8934C16.7711 14.7963 16.7948 14.6981 16.85 14.6173C16.9052 14.5365 16.9881 14.4788 17.0831 14.455C17.2461 14.414 17.4051 14.372 17.5621 14.328C17.6131 14.3122 17.6668 14.3068 17.7199 14.3121C17.7731 14.3174 17.8246 14.3333 17.8715 14.3589C17.9184 14.3844 17.9598 14.4191 17.993 14.4609C18.0263 14.5027 18.0509 14.5507 18.0653 14.6021C18.0798 14.6535 18.0837 14.7073 18.077 14.7603C18.0703 14.8133 18.0531 14.8644 18.0263 14.9107C17.9995 14.9569 17.9638 14.9973 17.9211 15.0294C17.8785 15.0616 17.8298 15.0849 17.7781 15.098C17.6161 15.1433 17.4494 15.1873 17.2781 15.23C17.2471 15.2385 17.2152 15.2429 17.1831 15.243ZM18.6331 14.801C18.5387 14.8018 18.447 14.7693 18.3743 14.7091C18.3017 14.6489 18.2526 14.5649 18.2358 14.472C18.2191 14.3791 18.2357 14.2833 18.2828 14.2015C18.3298 14.1197 18.4043 14.0572 18.4931 14.025C18.6497 13.967 18.8004 13.9073 18.9451 13.846C18.9938 13.8218 19.0469 13.8077 19.1013 13.8047C19.1556 13.8017 19.21 13.8099 19.2611 13.8286C19.3122 13.8474 19.3589 13.8764 19.3984 13.9138C19.4379 13.9513 19.4693 13.9964 19.4908 14.0464C19.5122 14.0964 19.5233 14.1503 19.5232 14.2047C19.5231 14.2591 19.5119 14.3129 19.4903 14.3629C19.4688 14.4128 19.4372 14.4578 19.3976 14.4952C19.358 14.5325 19.3112 14.5614 19.2601 14.58C19.1041 14.647 18.9411 14.713 18.7731 14.78C18.7279 14.7948 18.6805 14.8015 18.6331 14.8V14.801ZM20.0051 14.161C19.9178 14.1601 19.8332 14.1307 19.7641 14.0772C19.6951 14.0237 19.6455 13.9492 19.6229 13.8649C19.6002 13.7805 19.6057 13.6911 19.6386 13.6103C19.6715 13.5294 19.73 13.4615 19.8051 13.417C19.9451 13.3343 20.0761 13.2487 20.1981 13.16C20.2407 13.1292 20.2889 13.1071 20.3401 13.095C20.3912 13.0828 20.4443 13.0809 20.4962 13.0892C20.5481 13.0976 20.5979 13.1161 20.6426 13.1437C20.6874 13.1712 20.7263 13.2074 20.7571 13.25C20.7878 13.2926 20.8099 13.3409 20.8221 13.392C20.8342 13.4432 20.8362 13.4962 20.8278 13.5481C20.8195 13.6 20.801 13.6498 20.7734 13.6945C20.7458 13.7393 20.7097 13.7782 20.6671 13.809C20.5281 13.909 20.3761 14.009 20.2151 14.104C20.1517 14.142 20.079 14.1618 20.0051 14.161ZM21.1591 13.192C21.072 13.1919 20.9874 13.1635 20.9181 13.111C20.8335 13.047 20.7778 12.9521 20.7632 12.8471C20.7485 12.7421 20.7762 12.6356 20.8401 12.551C20.9206 12.4432 20.9878 12.326 21.0401 12.202C21.0605 12.1535 21.0902 12.1096 21.1276 12.0726C21.1651 12.0357 21.2094 12.0064 21.2581 11.9866C21.3068 11.9668 21.3589 11.9567 21.4115 11.9571C21.4641 11.9574 21.5161 11.9681 21.5646 11.9885C21.613 12.0089 21.657 12.0387 21.6939 12.0761C21.7309 12.1135 21.7601 12.1578 21.7799 12.2065C21.7998 12.2552 21.8098 12.3074 21.8095 12.3599C21.8092 12.4125 21.7985 12.4645 21.7781 12.513C21.6997 12.6979 21.5989 12.8726 21.4781 13.033C21.4408 13.0823 21.3926 13.1224 21.3372 13.15C21.2819 13.1776 21.2209 13.192 21.1591 13.192ZM21.4791 11.772C21.3919 11.772 21.3072 11.7436 21.2377 11.6911C21.1682 11.6386 21.1178 11.5648 21.0941 11.481C21.0573 11.3554 21.0031 11.2355 20.9331 11.125C20.903 11.0804 20.8822 11.0302 20.872 10.9774C20.8618 10.9246 20.8624 10.8703 20.8736 10.8177C20.8849 10.7651 20.9066 10.7154 20.9375 10.6714C20.9685 10.6274 21.0079 10.5901 21.0536 10.5617C21.0993 10.5333 21.1502 10.5144 21.2033 10.5062C21.2565 10.4979 21.3107 10.5005 21.3629 10.5136C21.415 10.5268 21.4639 10.5504 21.5067 10.5829C21.5496 10.6155 21.5854 10.6563 21.6121 10.703C21.7222 10.8766 21.8067 11.0652 21.8631 11.263C21.892 11.365 21.8794 11.4743 21.8278 11.5669C21.7762 11.6595 21.69 11.7279 21.5881 11.757C21.5525 11.7668 21.5159 11.7718 21.4791 11.772ZM20.5891 10.578C20.4981 10.5779 20.41 10.5469 20.3391 10.49C20.2182 10.3941 20.0923 10.3046 19.9621 10.222C19.9157 10.1947 19.8754 10.1584 19.8434 10.1152C19.8115 10.072 19.7885 10.0228 19.776 9.97059C19.7635 9.91833 19.7616 9.86409 19.7705 9.81109C19.7794 9.7581 19.7988 9.70743 19.8277 9.66213C19.8566 9.61683 19.8944 9.57781 19.9387 9.54742C19.983 9.51702 20.033 9.49586 20.0857 9.48521C20.1383 9.47456 20.1926 9.47462 20.2452 9.48541C20.2979 9.4962 20.3478 9.51748 20.3921 9.54799C20.5466 9.64558 20.6958 9.7514 20.8391 9.86499C20.904 9.9167 20.9513 9.98737 20.9743 10.0672C20.9973 10.147 20.9949 10.232 20.9675 10.3103C20.94 10.3887 20.8888 10.4566 20.821 10.5046C20.7532 10.5525 20.6721 10.5782 20.5891 10.578ZM19.2891 9.80899C19.2324 9.80927 19.1764 9.79697 19.1251 9.77299C18.9811 9.70632 18.8317 9.64366 18.6771 9.58499C18.6266 9.56691 18.5803 9.53889 18.5409 9.50259C18.5015 9.46628 18.4698 9.42243 18.4477 9.37364C18.4256 9.32485 18.4135 9.27211 18.4121 9.21856C18.4108 9.165 18.4202 9.11172 18.4398 9.06187C18.4595 9.01203 18.4889 8.96663 18.5264 8.92838C18.5639 8.89013 18.6087 8.85981 18.6582 8.8392C18.7076 8.8186 18.7607 8.80815 18.8143 8.80845C18.8679 8.80876 18.9208 8.81982 18.9701 8.84099C19.1371 8.90599 19.2991 8.97499 19.4531 9.04099C19.536 9.0788 19.6036 9.14382 19.6446 9.22529C19.6855 9.30676 19.6974 9.39978 19.6783 9.48894C19.6592 9.5781 19.6101 9.65805 19.5393 9.71553C19.4686 9.77301 19.3802 9.80457 19.2891 9.80499V9.80899ZM17.8661 9.28399C17.8278 9.28376 17.7897 9.27803 17.7531 9.26699C17.5981 9.22199 17.4401 9.17699 17.2771 9.13399C17.2262 9.12046 17.1786 9.09706 17.1368 9.06511C17.095 9.03317 17.0599 8.99331 17.0336 8.94781C17.0072 8.90231 16.99 8.85206 16.9831 8.79993C16.9761 8.7478 16.9795 8.69481 16.9931 8.64399C17.0066 8.59317 17.03 8.54551 17.0619 8.50373C17.0939 8.46195 17.1337 8.42688 17.1792 8.40051C17.2247 8.37413 17.275 8.35698 17.3271 8.35003C17.3792 8.34308 17.4322 8.34646 17.4831 8.35999C17.6517 8.40466 17.8184 8.45132 17.9831 8.49999C18.0757 8.52699 18.1554 8.58655 18.2075 8.66769C18.2597 8.74884 18.2808 8.84609 18.2669 8.94155C18.253 9.03701 18.2051 9.12424 18.132 9.18716C18.0589 9.25009 17.9655 9.28448 17.8691 9.28399H17.8661ZM16.3951 8.92199C16.3681 8.92196 16.3413 8.91895 16.3151 8.91299C16.1551 8.88099 15.9931 8.85099 15.8291 8.82299C15.777 8.81439 15.7271 8.79557 15.6823 8.7676C15.6375 8.73962 15.5987 8.70306 15.5681 8.66002C15.5375 8.61698 15.5158 8.5683 15.5041 8.51681C15.4924 8.46531 15.491 8.41202 15.5001 8.35999C15.5198 8.25617 15.5792 8.16411 15.6656 8.10327C15.752 8.04243 15.8587 8.01759 15.9631 8.03399C16.1351 8.06399 16.3047 8.09732 16.4721 8.13399C16.5693 8.15373 16.6557 8.20888 16.7145 8.28875C16.7733 8.36862 16.8004 8.46749 16.7904 8.56619C16.7805 8.66488 16.7342 8.75635 16.6606 8.82284C16.5869 8.88933 16.4913 8.92609 16.3921 8.92599L16.3951 8.92199ZM14.8951 8.68299C14.8791 8.68404 14.863 8.68404 14.8471 8.68299L14.3531 8.62899C14.2478 8.61717 14.1516 8.56412 14.0854 8.48145C14.0192 8.39878 13.9885 8.29325 14.0001 8.18799C14.0041 8.13523 14.0188 8.08384 14.0433 8.03692C14.0678 7.98999 14.1015 7.94851 14.1424 7.91497C14.1833 7.88142 14.2306 7.85651 14.2814 7.84173C14.3322 7.82696 14.3855 7.82262 14.4381 7.82899C14.6101 7.84699 14.7791 7.86499 14.9471 7.88499C14.9996 7.88794 15.051 7.90122 15.0984 7.92405C15.1458 7.94688 15.1883 7.97882 15.2233 8.01806C15.2584 8.05729 15.2853 8.10304 15.3027 8.1527C15.3201 8.20236 15.3275 8.25496 15.3246 8.30749C15.3216 8.36002 15.3083 8.41145 15.2855 8.45885C15.2627 8.50625 15.2307 8.54869 15.1915 8.58374C15.1523 8.6188 15.1065 8.64578 15.0568 8.66315C15.0072 8.68052 14.9546 8.68794 14.9021 8.68499L14.8951 8.68299Z" fill="#2F2D28"/>
<path d="M15.932 15.507C15.8318 15.5073 15.7352 15.4699 15.6612 15.4023C15.5873 15.3348 15.5413 15.2419 15.5326 15.1421C15.5238 15.0423 15.5527 14.9429 15.6137 14.8634C15.6747 14.784 15.7633 14.7303 15.862 14.713L16.104 14.669C16.2059 14.6542 16.3096 14.6793 16.3935 14.7391C16.4774 14.7988 16.535 14.8886 16.5543 14.9898C16.5737 15.0909 16.5532 15.1957 16.4973 15.2821C16.4413 15.3686 16.3542 15.4302 16.254 15.454L16 15.5C15.9776 15.5047 15.9548 15.507 15.932 15.507Z" fill="#2F2D28"/>
<path d="M8.09998 15.507C8.07647 15.5071 8.05301 15.5048 8.02998 15.5L7.77698 15.454C7.7244 15.4451 7.67415 15.4257 7.62916 15.397C7.58418 15.3684 7.54539 15.331 7.51506 15.2871C7.48473 15.2433 7.46348 15.1938 7.45256 15.1416C7.44165 15.0894 7.44128 15.0355 7.45148 14.9831C7.46168 14.9308 7.48225 14.881 7.51198 14.8367C7.5417 14.7925 7.57998 14.7546 7.62456 14.7253C7.66915 14.696 7.71914 14.676 7.77159 14.6663C7.82404 14.6566 7.87789 14.6575 7.92998 14.669L8.16898 14.713C8.26757 14.7303 8.3561 14.7839 8.41709 14.8632C8.47809 14.9426 8.50712 15.0419 8.49846 15.1416C8.48979 15.2413 8.44406 15.3342 8.37029 15.4018C8.29652 15.4695 8.20007 15.507 8.09998 15.507Z" fill="#2F2D28"/>
<path d="M6.86601 15.248C6.83397 15.2479 6.80207 15.2439 6.77101 15.236C6.60001 15.193 6.43101 15.149 6.27101 15.102C6.21987 15.0876 6.1721 15.0632 6.13049 15.0302C6.08888 14.9972 6.05427 14.9562 6.02867 14.9097C6.00307 14.8631 5.987 14.8119 5.98139 14.7591C5.97578 14.7063 5.98075 14.6529 5.99601 14.602C6.02663 14.4998 6.09625 14.4137 6.18982 14.3625C6.28339 14.3112 6.39338 14.2988 6.49601 14.328C6.65201 14.373 6.80901 14.415 6.97001 14.454C7.06592 14.4769 7.14998 14.5344 7.20608 14.6155C7.26217 14.6966 7.28634 14.7955 7.27394 14.8934C7.26154 14.9912 7.21345 15.081 7.1389 15.1455C7.06435 15.21 6.9686 15.2448 6.87001 15.243L6.86601 15.248ZM5.41701 14.808C5.36978 14.8082 5.32294 14.7994 5.27901 14.782C5.11001 14.721 4.94801 14.655 4.79101 14.589C4.69328 14.5475 4.61604 14.4689 4.57628 14.3704C4.53652 14.272 4.53751 14.1617 4.57901 14.064C4.62052 13.9663 4.69915 13.889 4.79761 13.8493C4.89606 13.8095 5.00628 13.8105 5.10401 13.852C5.24868 13.9147 5.39901 13.9747 5.55501 14.032C5.64357 14.0641 5.71793 14.1265 5.76501 14.2081C5.8121 14.2897 5.82887 14.3853 5.81237 14.478C5.79588 14.5708 5.74718 14.6547 5.67485 14.7151C5.60253 14.7755 5.51122 14.8084 5.41701 14.808ZM4.04301 14.169C3.97258 14.1683 3.90358 14.149 3.84301 14.113C3.67968 14.0183 3.52801 13.9203 3.38801 13.819C3.30182 13.7571 3.24375 13.6634 3.22659 13.5587C3.20943 13.454 3.23458 13.3467 3.29651 13.2605C3.35844 13.1743 3.45207 13.1162 3.55681 13.0991C3.66155 13.0819 3.76882 13.1071 3.85501 13.169C3.97601 13.256 4.10801 13.341 4.24701 13.424C4.32258 13.4683 4.3815 13.5362 4.41472 13.6173C4.44795 13.6984 4.45364 13.7881 4.43092 13.8727C4.40821 13.9573 4.35834 14.0321 4.28899 14.0857C4.21963 14.1392 4.13462 14.1685 4.04701 14.169H4.04301ZM2.88501 13.208C2.82376 13.208 2.76332 13.1939 2.70835 13.1669C2.65339 13.1398 2.60538 13.1005 2.56801 13.052C2.44425 12.893 2.34047 12.7193 2.25901 12.535C2.21854 12.438 2.2179 12.3289 2.25723 12.2314C2.29656 12.1339 2.3727 12.0558 2.46917 12.014C2.56565 11.9722 2.6747 11.9701 2.77273 12.0081C2.87076 12.046 2.9499 12.1211 2.99301 12.217C3.04812 12.3403 3.11796 12.4565 3.20101 12.563C3.26584 12.6469 3.29468 12.7532 3.28117 12.8584C3.26767 12.9636 3.21294 13.0591 3.12901 13.124C3.05953 13.1788 2.97351 13.2084 2.88501 13.208ZM2.54801 11.789C2.51424 11.7884 2.48066 11.7837 2.44801 11.775C2.39725 11.7614 2.34966 11.738 2.30796 11.706C2.26626 11.674 2.23127 11.6341 2.20499 11.5886C2.17871 11.5431 2.16165 11.4929 2.15479 11.4408C2.14793 11.3887 2.1514 11.3358 2.16501 11.285C2.22085 11.0865 2.30397 10.8967 2.41201 10.721C2.46718 10.6303 2.55611 10.5652 2.65926 10.5401C2.7624 10.515 2.87131 10.5318 2.96201 10.587C3.05272 10.6422 3.11779 10.7311 3.14292 10.8342C3.16805 10.9374 3.15118 11.0463 3.09601 11.137C3.02686 11.2472 2.97398 11.3667 2.93901 11.492C2.91612 11.5779 2.86525 11.6538 2.79444 11.7076C2.72364 11.7613 2.63693 11.79 2.54801 11.789ZM3.43001 10.589C3.34696 10.5892 3.2659 10.5635 3.19809 10.5156C3.13028 10.4676 3.07908 10.3997 3.0516 10.3214C3.02412 10.243 3.02172 10.158 3.04473 10.0782C3.06774 9.99838 3.11502 9.92772 3.18001 9.876C3.32244 9.76274 3.47064 9.65693 3.62401 9.559C3.66802 9.52752 3.71795 9.5053 3.77079 9.49367C3.82364 9.48205 3.87829 9.48126 3.93144 9.49137C3.98459 9.50147 4.03515 9.52225 4.08004 9.55246C4.12493 9.58266 4.16322 9.62166 4.19261 9.66709C4.22199 9.71252 4.24185 9.76344 4.25099 9.81677C4.26013 9.8701 4.25835 9.92473 4.24577 9.97735C4.23319 10.03 4.21006 10.0795 4.17779 10.1229C4.14552 10.1663 4.10477 10.2028 4.05801 10.23C3.92718 10.3134 3.801 10.4039 3.68001 10.501C3.60891 10.5575 3.52086 10.5885 3.43001 10.589ZM4.73001 9.817C4.63896 9.81677 4.55071 9.78548 4.47984 9.7283C4.40898 9.67112 4.35975 9.59148 4.34028 9.50253C4.32081 9.41358 4.33227 9.32065 4.37277 9.2391C4.41327 9.15754 4.48038 9.09225 4.56301 9.054C4.71701 8.982 4.87801 8.914 5.04601 8.848C5.14441 8.80822 5.25458 8.80915 5.35228 8.8506C5.44999 8.89204 5.52723 8.97061 5.56701 9.069C5.60679 9.1674 5.60586 9.27756 5.56441 9.37527C5.52297 9.47298 5.44441 9.55022 5.34601 9.59C5.19201 9.652 5.04601 9.715 4.90001 9.78C4.84724 9.80506 4.78943 9.81772 4.73101 9.817H4.73001ZM6.15001 9.289C6.05397 9.28915 5.96109 9.25474 5.88832 9.19207C5.81556 9.12939 5.76778 9.04262 5.7537 8.94762C5.73963 8.85262 5.7602 8.75573 5.81167 8.67464C5.86314 8.59356 5.94206 8.5337 6.03401 8.506C6.19801 8.456 6.36468 8.40867 6.53401 8.364C6.63692 8.33748 6.74614 8.35292 6.83766 8.40693C6.92918 8.46094 6.99549 8.5491 7.02201 8.652C7.04853 8.7549 7.03309 8.86413 6.97908 8.95565C6.92507 9.04716 6.83692 9.11348 6.73401 9.14C6.57301 9.181 6.41601 9.226 6.26401 9.271C6.22708 9.28248 6.18868 9.28854 6.15001 9.289ZM7.62201 8.926C7.52218 8.92663 7.42572 8.88991 7.35159 8.82305C7.27745 8.7562 7.231 8.66403 7.22135 8.56467C7.2117 8.4653 7.23956 8.36592 7.29944 8.28605C7.35933 8.20618 7.44693 8.15159 7.54501 8.133C7.71001 8.101 7.87901 8.068 8.04501 8.039C8.0968 8.02866 8.15014 8.02892 8.20183 8.03976C8.25351 8.05061 8.30247 8.0718 8.34573 8.10208C8.389 8.13236 8.42569 8.17109 8.45358 8.21593C8.48147 8.26078 8.49998 8.3108 8.50801 8.363C8.52633 8.46735 8.50251 8.5747 8.44176 8.66151C8.38102 8.74831 8.28832 8.80747 8.18401 8.826C8.02001 8.855 7.85601 8.886 7.69501 8.918C7.67098 8.92293 7.64654 8.92561 7.62201 8.926ZM9.12201 8.685C9.06948 8.68822 9.01684 8.68106 8.96707 8.66393C8.91731 8.6468 8.87141 8.62004 8.83199 8.58517C8.79257 8.5503 8.76041 8.50801 8.73734 8.46071C8.71426 8.41341 8.70073 8.36203 8.69751 8.3095C8.69429 8.25697 8.70146 8.20432 8.71858 8.15456C8.73571 8.1048 8.76248 8.0589 8.79734 8.01948C8.83221 7.98006 8.87451 7.9479 8.9218 7.92482C8.9691 7.90175 9.02048 7.88822 9.07301 7.885C9.24201 7.863 9.41301 7.845 9.58601 7.827C9.63854 7.82188 9.69156 7.82715 9.74205 7.84252C9.79254 7.85789 9.83951 7.88306 9.88028 7.91658C9.92104 7.9501 9.95481 7.99133 9.97964 8.0379C10.0045 8.08447 10.0199 8.13547 10.025 8.188C10.0301 8.24053 10.0249 8.29355 10.0095 8.34404C9.99412 8.39453 9.96895 8.4415 9.93543 8.48227C9.90191 8.52303 9.86069 8.55679 9.81412 8.58163C9.76755 8.60646 9.71654 8.62188 9.66401 8.627C9.49901 8.642 9.33401 8.661 9.17301 8.681L9.12201 8.685Z" fill="#2F2D28"/>
<path d="M10.647 8.55101C10.541 8.55419 10.438 8.5151 10.3607 8.44234C10.2834 8.36957 10.2382 8.26909 10.235 8.16301C10.2319 8.05692 10.271 7.95391 10.3437 7.87665C10.4165 7.79938 10.517 7.75419 10.623 7.75101L10.878 7.73801C10.9824 7.73895 11.0827 7.77833 11.1599 7.84863C11.237 7.91892 11.2855 8.01519 11.296 8.11901C11.3009 8.22496 11.2635 8.32851 11.1921 8.40689C11.1206 8.48528 11.021 8.53208 10.915 8.53701L10.67 8.55001L10.647 8.55101Z" fill="#2F2D28"/>
<path d="M12.016 19.6C11.8327 19.6004 11.6511 19.5645 11.4817 19.4945C11.3124 19.4245 11.1585 19.3217 11.029 19.192L7.94996 16.117C7.68921 15.8547 7.54285 15.4999 7.54285 15.13C7.54285 14.7601 7.68921 14.4053 7.94996 14.143L11.029 11.064C11.2913 10.8032 11.6461 10.6569 12.016 10.6569C12.3858 10.6569 12.7406 10.8032 13.003 11.064L16.082 14.143C16.3427 14.4053 16.4891 14.7601 16.4891 15.13C16.4891 15.4999 16.3427 15.8547 16.082 16.117L13 19.2C12.7379 19.4584 12.384 19.6023 12.016 19.6ZM12.016 11.452C11.9379 11.4519 11.8605 11.4673 11.7884 11.4974C11.7163 11.5274 11.6509 11.5715 11.596 11.627L8.51696 14.71C8.46154 14.7651 8.41755 14.8306 8.38754 14.9028C8.35753 14.975 8.34208 15.0523 8.34208 15.1305C8.34208 15.2087 8.35753 15.286 8.38754 15.3582C8.41755 15.4304 8.46154 15.4959 8.51696 15.551L11.6 18.63C11.7122 18.7402 11.8632 18.802 12.0205 18.802C12.1778 18.802 12.3288 18.7402 12.441 18.63L15.52 15.551C15.6302 15.4388 15.692 15.2878 15.692 15.1305C15.692 14.9732 15.6302 14.8222 15.52 14.71L12.441 11.631C12.3853 11.5751 12.319 11.5308 12.2461 11.5007C12.1731 11.4707 12.0949 11.4555 12.016 11.456V11.452Z" fill="#2F2D28"/>
<path d="M12.017 17.363L9.771 15.118L12.017 12.872L14.262 15.118L12.017 17.363ZM10.9 15.118L12.016 16.232L13.13 15.118L12.017 14L10.9 15.118Z" fill="#2F2D28"/>
<path d="M16.135 14.718H13.399V15.519H16.135V14.718Z" fill="#2F2D28"/>
<path d="M12.417 10.941H11.616V13.654H12.417V10.941Z" fill="#2F2D28"/>
<path d="M10.418 14.718H7.77405V15.519H10.418V14.718Z" fill="#2F2D28"/>
<path d="M12.417 16.391H11.616V19.267H12.417V16.391Z" fill="#2F2D28"/>
</svg>
