<svg width="24" height="24" viewBox="0 0 24 24" fill="none" xmlns="http://www.w3.org/2000/svg">
<path d="M4.39197 2.52698C4.72197 6.98698 7.37197 10.577 10.782 11.277" stroke="#555555" stroke-width="0.8" stroke-linecap="round" stroke-linejoin="round"/>
<path d="M13.2 11.277C16.61 10.587 19.28 6.99698 19.61 2.52698" stroke="#555555" stroke-width="0.8" stroke-linecap="round" stroke-linejoin="round"/>
<path d="M12 21.3979C14.3544 21.3979 16.263 19.4893 16.263 17.1349C16.263 14.7806 14.3544 12.8719 12 12.8719C9.64561 12.8719 7.737 14.7806 7.737 17.1349C7.737 19.4893 9.64561 21.3979 12 21.3979Z" stroke="#555555" stroke-width="0.8" stroke-linecap="round" stroke-linejoin="round"/>
<path d="M12.289 14.979C12.5342 14.979 12.777 15.0273 13.0035 15.1211C13.23 15.2149 13.4358 15.3525 13.6092 15.5258C13.7825 15.6992 13.9201 15.905 14.0139 16.1315C14.1077 16.358 14.156 16.6008 14.156 16.846" stroke="#555555" stroke-width="0.8" stroke-linecap="round" stroke-linejoin="round"/>
<path d="M11.357 12.815L10.234 9.80001C10.2161 9.75313 10.2099 9.70264 10.2157 9.65282C10.2215 9.603 10.2392 9.55531 10.2674 9.5138C10.2955 9.4723 10.3333 9.43819 10.3774 9.41438C10.4216 9.39056 10.4708 9.37775 10.521 9.37701C11.264 9.36701 12.751 9.34901 13.484 9.36001C13.5332 9.36071 13.5816 9.37325 13.625 9.39658C13.6684 9.4199 13.7055 9.45332 13.7333 9.49402C13.761 9.53471 13.7786 9.58149 13.7844 9.6304C13.7903 9.6793 13.7843 9.7289 13.767 9.77501L12.634 12.817" stroke="#555555" stroke-width="0.8" stroke-miterlimit="10"/>
</svg>
