<svg width="24" height="24" viewBox="0 0 24 24" fill="none" xmlns="http://www.w3.org/2000/svg">
<path d="M11.817 17.333C11.3423 17.333 10.8783 17.1923 10.4836 16.9285C10.0889 16.6648 9.78133 16.29 9.59968 15.8515C9.41803 15.4129 9.3705 14.9304 9.46311 14.4648C9.55571 13.9993 9.78429 13.5716 10.1199 13.236C10.4556 12.9003 10.8832 12.6717 11.3488 12.5791C11.8143 12.4865 12.2969 12.5341 12.7354 12.7157C13.174 12.8974 13.5488 13.205 13.8125 13.5997C14.0762 13.9943 14.217 14.4583 14.217 14.933C14.217 15.5695 13.9641 16.18 13.514 16.6301C13.064 17.0802 12.4535 17.333 11.817 17.333ZM11.817 13.333C11.5005 13.333 11.1912 13.4269 10.9281 13.6027C10.665 13.7785 10.4599 14.0284 10.3388 14.3207C10.2177 14.6131 10.186 14.9348 10.2477 15.2452C10.3095 15.5555 10.4619 15.8406 10.6856 16.0644C10.9094 16.2882 11.1945 16.4405 11.5048 16.5023C11.8152 16.564 12.1369 16.5323 12.4293 16.4112C12.7216 16.2901 12.9715 16.0851 13.1473 15.8219C13.3232 15.5588 13.417 15.2495 13.417 14.933C13.4159 14.5094 13.2469 14.1034 12.947 13.8042C12.647 13.505 12.2406 13.337 11.817 13.337V13.333Z" fill="#2F2D28"/>
<path d="M11.4024 10.2013L11.3745 13.0621L12.1755 13.0699L12.2034 10.2091L11.4024 10.2013Z" fill="#2F2D28"/>
<path d="M8.66064 11.2761L8.08826 11.8364L10.089 13.8801L10.6614 13.3198L8.66064 11.2761Z" fill="#2F2D28"/>
<path d="M6.90778 14.5347L6.89929 15.3357L9.75913 15.366L9.76762 14.565L6.90778 14.5347Z" fill="#2F2D28"/>
<path d="M10.0162 16.0781L7.97302 18.0793L8.53352 18.6516L10.5767 16.6503L10.0162 16.0781Z" fill="#2F2D28"/>
<path d="M11.2618 16.9723L11.2339 19.8322L12.0348 19.84L12.0628 16.9801L11.2618 16.9723Z" fill="#2F2D28"/>
<path d="M13.3476 16.162L12.7753 16.7224L14.776 18.7661L15.3484 18.2057L13.3476 16.162Z" fill="#2F2D28"/>
<path d="M13.6773 14.6754L13.6688 15.4763L16.5297 15.5066L16.5381 14.7056L13.6773 14.6754Z" fill="#2F2D28"/>
<path d="M14.9036 11.391L12.8605 13.3923L13.421 13.9646L15.4641 11.9633L14.9036 11.391Z" fill="#2F2D28"/>
<path d="M17.948 13.235L17.587 12.522C18.921 11.844 19.655 10.981 19.655 10.091C19.655 8.147 16.162 6.504 12.027 6.504C7.89198 6.504 4.39998 8.147 4.39998 10.091C4.4683 10.581 4.66248 11.045 4.96358 11.4376C5.26469 11.8301 5.66242 12.138 6.11798 12.331L5.71798 13.023C5.13764 12.7646 4.63601 12.3573 4.26402 11.8423C3.89203 11.3274 3.66293 10.7231 3.59998 10.091C3.59998 7.631 7.29998 5.703 12.03 5.703C16.76 5.703 20.459 7.631 20.459 10.091C20.456 11.3 19.566 12.414 17.948 13.235Z" fill="#2F2D28"/>
<path d="M4.76403 15.964C3.98703 15.5509 3.3282 14.9465 2.84981 14.208C2.37142 13.4694 2.08927 12.621 2.03003 11.743C2.03003 8.38302 6.46703 5.65002 11.92 5.65002C17.373 5.65002 21.81 8.38302 21.81 11.743C21.7534 12.6073 21.4793 13.4433 21.0133 14.1734C20.5472 14.9034 19.9042 15.5039 19.144 15.919L18.704 15.25C19.3501 14.9045 19.8992 14.4024 20.3011 13.7897C20.7029 13.177 20.9446 12.4733 21.004 11.743C21.004 8.82402 16.927 6.45002 11.915 6.45002C6.90303 6.45002 2.83003 8.82402 2.83003 11.743C2.893 12.4867 3.14341 13.2022 3.55786 13.8228C3.97231 14.4434 4.53729 14.9489 5.20003 15.292L4.76403 15.964Z" fill="#2F2D28"/>
<path d="M16.644 17.561C16.4155 17.5581 16.1882 17.5275 15.967 17.47L15.467 17.348L15.704 16.896C16.0479 16.2687 16.2281 15.5649 16.2281 14.8495C16.2281 14.1342 16.0479 13.4303 15.704 12.803L15.469 12.354L15.961 12.23C16.1825 12.1702 16.4107 12.1389 16.64 12.137C17.3593 12.137 18.0491 12.4228 18.5577 12.9314C19.0663 13.4399 19.352 14.1298 19.352 14.849C19.352 15.5683 19.0663 16.2581 18.5577 16.7667C18.0491 17.2753 17.3593 17.561 16.64 17.561H16.644ZM16.652 12.938C17.1582 14.1618 17.1582 15.5363 16.652 16.76C17.1589 16.76 17.6449 16.5587 18.0033 16.2003C18.3617 15.8419 18.563 15.3559 18.563 14.849C18.563 14.3422 18.3617 13.8561 18.0033 13.4977C17.6449 13.1394 17.1589 12.938 16.652 12.938Z" fill="#2F2D28"/>
<path d="M7.10006 17.561C6.74392 17.561 6.39126 17.4909 6.06222 17.3546C5.73319 17.2183 5.43422 17.0185 5.18239 16.7667C4.93056 16.5149 4.73079 16.2159 4.5945 15.8869C4.45821 15.5578 4.38806 15.2052 4.38806 14.849C4.38806 14.4929 4.45821 14.1402 4.5945 13.8112C4.73079 13.4822 4.93056 13.1832 5.18239 12.9313C5.43422 12.6795 5.73319 12.4798 6.06222 12.3435C6.39126 12.2072 6.74392 12.137 7.10006 12.137C7.32543 12.1398 7.54954 12.171 7.76706 12.23L8.25906 12.354L8.02406 12.803C7.68024 13.4303 7.50001 14.1342 7.50001 14.8495C7.50001 15.5649 7.68024 16.2687 8.02406 16.896L8.26006 17.347L7.76506 17.47C7.54779 17.5266 7.32455 17.5572 7.10006 17.561ZM7.08006 12.938C6.57323 12.938 6.08716 13.1394 5.72878 13.4977C5.3704 13.8561 5.16906 14.3422 5.16906 14.849C5.16906 15.3559 5.3704 15.8419 5.72878 16.2003C6.08716 16.5587 6.57323 16.76 7.08006 16.76C6.82886 16.1542 6.69955 15.5048 6.69955 14.849C6.69955 14.1932 6.82886 13.5438 7.08006 12.938Z" fill="#2F2D28"/>
<path d="M11.872 20.021C10.7303 20.032 9.61665 19.6676 8.70225 18.9839C7.78785 18.3002 7.12335 17.3351 6.81092 16.2369C6.49849 15.1388 6.55544 13.9684 6.97301 12.9058C7.39058 11.8432 8.14565 10.9471 9.1221 10.3554C10.0986 9.76377 11.2423 9.50923 12.3776 9.63096C13.5128 9.75269 14.5766 10.244 15.4054 11.0292C16.2342 11.8145 16.7821 12.8502 16.9649 13.9772C17.1476 15.1042 16.9551 16.2601 16.417 17.267C15.9787 18.0937 15.3247 18.7862 14.5245 19.2711C13.7243 19.756 12.8076 20.0152 11.872 20.021ZM11.872 10.479C10.9052 10.4686 9.96173 10.7763 9.18696 11.3548C8.41218 11.9332 7.84903 12.7503 7.58421 13.6802C7.31939 14.6101 7.36759 15.6013 7.72138 16.5011C8.07518 17.4009 8.71495 18.1595 9.54219 18.66C10.3694 19.1605 11.3383 19.3753 12.2995 19.2711C13.2608 19.167 14.1611 18.7497 14.862 18.0837C15.5628 17.4176 16.0253 16.5396 16.1782 15.5849C16.331 14.6301 16.1658 13.6516 15.708 12.8C15.3373 12.1032 14.785 11.5197 14.1097 11.1111C13.4344 10.7025 12.6612 10.4841 11.872 10.479Z" fill="#2F2D28"/>
</svg>
