<svg width="24" height="24" viewBox="0 0 24 24" fill="none" xmlns="http://www.w3.org/2000/svg">
<path d="M18.979 3.51195C18.8404 3.16047 18.5718 2.8758 18.229 2.71695C16.2495 1.93524 14.1257 1.58577 12 1.69195C9.8742 1.58487 7.75015 1.93473 5.771 2.71795C5.42958 2.87774 5.16153 3.16116 5.021 3.51095C4.64 4.44595 4 6.79295 4 12C4 17.207 4.64 19.548 5.021 20.486C5.15875 20.8399 5.42829 21.1266 5.773 21.286C7.75232 22.0658 9.87526 22.4142 12 22.308C14.1243 22.411 16.2462 22.0612 18.225 21.282C18.5697 21.1216 18.8398 20.8353 18.98 20.482C19.361 19.55 20 17.2 20 12C20 6.79995 19.36 4.44795 18.979 3.51195ZM19 11.783L16.777 8.72495V6.59995L18.235 4.41495C18.8275 6.82411 19.0849 9.30347 19 11.783V11.783ZM8.223 17V6.99995H15.777V17H8.223ZM13.703 18L12 20.188L10.283 18H13.703ZM10.424 5.99995L12 3.84895L13.563 5.99995H10.424ZM15.976 5.99995H14.8L12.406 2.70595H12.401C14.1763 2.66124 15.9445 2.94605 17.616 3.54595L15.976 5.99995ZM11.6 2.69995L9.184 5.99995H8.024L6.385 3.54195C8.05627 2.94108 9.82455 2.65558 11.6 2.69995V2.69995ZM7.223 14.1L5.81 12.3L7.223 10.371V14.1ZM8.023 18H9.011L11.6 21.3C9.82477 21.3436 8.05676 21.0588 6.385 20.46L8.023 18ZM14.968 18H15.975L17.613 20.456C15.9419 21.0549 14.1747 21.341 12.4 21.3L14.968 18ZM16.776 10.426L18.138 12.3L16.777 14.049L16.776 10.426ZM5.765 4.41495L7.223 6.59995V8.67695L5 11.709C4.91955 9.25405 5.17696 6.79974 5.765 4.41495V4.41495ZM5.007 12.9L7.223 15.72V17.4L5.766 19.584C5.2177 17.3995 4.96246 15.1518 5.007 12.9V12.9ZM18.236 19.588L16.777 17.4V15.676L18.993 12.829C19.0425 15.1049 18.7879 17.3773 18.236 19.586V19.588Z" fill="#1A1A1A"/>
</svg>
