<svg width="24" height="24" viewBox="0 0 24 24" fill="none" xmlns="http://www.w3.org/2000/svg">
<path d="M21 5.29999H3C2.72 5.29999 2.5 5.07999 2.5 4.79999C2.5 4.51999 2.72 4.29999 3 4.29999H21C21.28 4.29999 21.5 4.51999 21.5 4.79999C21.5 5.07999 21.28 5.29999 21 5.29999Z" fill="#0D0D0E"/>
<path d="M15 12.5H3C2.72 12.5 2.5 12.28 2.5 12C2.5 11.72 2.72 11.5 3 11.5H15C15.28 11.5 15.5 11.72 15.5 12C15.5 12.28 15.28 12.5 15 12.5Z" fill="#0D0D0E"/>
<path d="M21 19.7H3C2.72 19.7 2.5 19.48 2.5 19.2C2.5 18.92 2.72 18.7 3 18.7H21C21.28 18.7 21.5 18.92 21.5 19.2C21.5 19.48 21.28 19.7 21 19.7Z" fill="#0D0D0E"/>
</svg>
