<?xml version="1.0" encoding="UTF-8"?>
<svg width="16px" height="16px" viewBox="0 0 16 16" version="1.1" xmlns="http://www.w3.org/2000/svg" xmlns:xlink="http://www.w3.org/1999/xlink">
    <title>B49E0F5F-CC19-4E36-8457-AEFE87EB87E5</title>
    <g id="header/afterScroll-V3" stroke="none" stroke-width="1" fill="none" fill-rule="evenodd">
        <g id="header01_1366" transform="translate(-1081.000000, -1655.000000)" fill-rule="nonzero">
            <g id="instagram" transform="translate(1081.000000, 1655.000000)">
                <path d="M11,0 L5,0 C2.239,0 0,2.239 0,5 L0,11 C0,13.761 2.239,16 5,16 L11,16 C13.761,16 16,13.761 16,11 L16,5 C16,2.239 13.761,0 11,0 Z" id="Shape" fill="#333333"></path>
                <path d="M8.12121212,4.12121212 C5.91221212,4.12121212 4.12121212,5.91221212 4.12121212,8.12121212 C4.12121212,10.3302121 5.91221212,12.1212121 8.12121212,12.1212121 C10.3302121,12.1212121 12.1212121,10.3302121 12.1212121,8.12121212 C12.1212121,5.91221212 10.3302121,4.12121212 8.12121212,4.12121212 Z M8.12121212,10.6212121 C6.74321212,10.6212121 5.62121212,9.49921212 5.62121212,8.12121212 C5.62121212,6.74221212 6.74321212,5.62121212 8.12121212,5.62121212 C9.49921212,5.62121212 10.6212121,6.74221212 10.6212121,8.12121212 C10.6212121,9.49921212 9.49921212,10.6212121 8.12121212,10.6212121 Z" id="Shape" fill="#FFFFFF"></path>
                <circle id="Oval" stroke="#FFFFFF" fill="#FFFFFF" cx="12.3636364" cy="3.63636364" r="1"></circle>
            </g>
        </g>
    </g>
</svg>