<?xml version="1.0" encoding="UTF-8"?>
<svg width="16px" height="20px" viewBox="0 0 16 20" version="1.1" xmlns="http://www.w3.org/2000/svg" xmlns:xlink="http://www.w3.org/1999/xlink">
    <title>C5FBB044-0B90-429C-A580-3F3B802DC7C2</title>
    <g id="header/afterScroll-V3" stroke="none" stroke-width="1" fill="none" fill-rule="evenodd">
        <g id="header01_1366" transform="translate(-985.000000, -1653.000000)" fill="#333333" fill-rule="nonzero">
            <g id="pinterest" transform="translate(985.000000, 1653.000000)">
                <path d="M2.77322565,10.8679199 C2.79847001,10.8055115 3.05106716,9.84329223 3.06876894,9.77813719 C2.67440338,9.1899109 2.23632199,7.26364137 2.57234857,5.70007324 C2.9348509,3.4059143 5.38739845,2.27813719 7.70294938,2.27813719 L7.70294938,2.27386477 C10.6020444,2.27569578 12.7721326,3.8746643 12.7744415,6.62841797 C12.7762887,8.78387453 11.4663546,11.6329956 9.22961519,11.6329956 C9.22899952,11.6329956 9.22853772,11.6329956 9.227922,11.6329956 C8.42964723,11.6329956 7.41895076,11.2741089 7.15388535,10.9216309 C6.84802881,10.5154419 6.77291156,10.0141907 6.93453682,9.47860719 C7.33059561,8.22540281 7.83563599,6.72424316 7.89459073,5.7232666 C7.94923546,4.77859496 7.27302626,4.16397094 6.39609386,4.16397094 C5.73620113,4.16397094 4.87912557,4.5439148 4.45197315,5.61157227 C4.09916834,6.49856566 4.10671084,7.42721559 4.47506245,8.45031738 C4.61867805,8.85025023 3.83841293,11.4575195 3.58843256,12.3065186 C2.96732989,14.4155884 2.1170272,17.0840454 2.29881711,18.5700989 L2.47429594,20 L3.35569222,18.8549805 C4.57542406,17.2721863 5.8365627,13.177948 6.17258928,12.1817016 C7.16604573,13.4570312 9.23484879,13.4936523 9.47605523,13.4936523 C12.4387228,13.4936523 15.7982189,10.5773926 15.7029369,6.51855469 C15.6193536,2.95913695 12.9914811,0 8.26971524,0 L8.26971524,0.00457765625 C3.77838072,0.00457765625 1.15697329,2.38098145 0.515244102,5.38360594 C-0.0724560329,8.16772461 1.23455341,10.2867127 2.77322565,10.8679199 Z" id="Path"></path>
            </g>
        </g>
    </g>
</svg>