<svg width="24" height="24" viewBox="0 0 24 24" fill="none" xmlns="http://www.w3.org/2000/svg">
<path d="M21.7698 21.0501L16.5798 15.8801C17.8298 14.4701 18.5898 12.6201 18.5898 10.5901C18.5898 6.17009 15.0098 2.59009 10.5898 2.59009C6.16984 2.59009 2.58984 6.17009 2.58984 10.5901C2.58984 15.0101 6.16984 18.5901 10.5898 18.5901C12.6198 18.5901 14.4598 17.8301 15.8698 16.5901L21.0598 21.7701C21.1598 21.8701 21.2898 21.9201 21.4098 21.9201C21.5298 21.9201 21.6698 21.8701 21.7598 21.7701C21.9598 21.5701 21.9598 21.2601 21.7598 21.0601L21.7698 21.0501ZM3.58984 10.5901C3.58984 6.73009 6.72984 3.59009 10.5898 3.59009C14.4498 3.59009 17.5898 6.73009 17.5898 10.5901C17.5898 14.4501 14.4498 17.5901 10.5898 17.5901C6.72984 17.5901 3.58984 14.4501 3.58984 10.5901Z" fill="#0D0D0E"/>
</svg>
