<svg width="24" height="24" viewBox="0 0 24 24" fill="none" xmlns="http://www.w3.org/2000/svg">
<path d="M12.0002 13.51C15.4602 13.51 18.4802 16.53 19.4002 20.8H4.60016C5.52016 16.53 8.54016 13.51 12.0002 13.51ZM12.0002 12.54C7.78016 12.54 4.27016 16.36 3.50016 21.42C3.47016 21.6 3.61016 21.77 3.79016 21.77H20.2102C20.3802 21.77 20.5202 21.6 20.5002 21.42C19.7402 16.36 16.2202 12.54 12.0002 12.54Z" fill="#0D0D0E"/>
<path d="M12.03 3.19998C13.99 3.19998 15.59 4.79998 15.59 6.75998C15.59 8.71998 13.99 10.32 12.03 10.32C10.07 10.32 8.47 8.71998 8.47 6.75998C8.47 4.79998 10.07 3.19998 12.03 3.19998ZM12.03 2.22998C9.53 2.22998 7.5 4.25998 7.5 6.75998C7.5 9.25998 9.53 11.29 12.03 11.29C14.53 11.29 16.56 9.25998 16.56 6.75998C16.56 4.25998 14.53 2.22998 12.03 2.22998Z" fill="#0D0D0E"/>
</svg>
