<?xml version="1.0" encoding="utf-8"?>
<!-- Generator: Adobe Illustrator 28.3.0, SVG Export Plug-In . SVG Version: 6.00 Build 0)  -->
<svg version="1.1" id="Layer_1" xmlns="http://www.w3.org/2000/svg" xmlns:xlink="http://www.w3.org/1999/xlink" x="0px" y="0px"
	 viewBox="0 0 1000 237.8" style="enable-background:new 0 0 1000 237.8;" xml:space="preserve">
<style type="text/css">
	.st0{fill:#202020;}
	.st1{fill-rule:evenodd;clip-rule:evenodd;fill:#F79036;}
</style>
<g>
	<g>
		<path class="st0" d="M322.5,165.8h-17.6L276,75.2h18.2l19.4,64.2h0.3l19.4-64.2h18.2L322.5,165.8z"/>
		<path class="st0" d="M403,165.8h-47.8V75.2h46.5l2.5,16.4h-32.1v20.1h28.3v16.4h-28.3v21.4h33.3L403,165.8z"/>
		<path class="st0" d="M486,120.5c0,7.5-1.4,14.2-4.1,19.8c-2.7,5.7-6.2,10.4-10.5,14.2c-4.3,3.8-9.1,6.6-14.3,8.5
			s-10.5,2.8-15.7,2.8h-28.3V75.2h27.7c5.4,0,10.7,0.9,16.1,2.8c5.4,1.9,10.2,4.7,14.5,8.5c4.3,3.8,7.8,8.5,10.6,14.2
			C484.7,106.4,486,113,486,120.5z M468.4,120.5c0-5-0.9-9.4-2.8-13.1c-1.8-3.7-4.3-6.8-7.3-9.2c-3-2.5-6.4-4.3-10.1-5.5
			c-3.7-1.2-7.5-1.8-11.3-1.8h-6.9v59.1h6.9c3.8,0,7.5-0.6,11.3-1.8c3.7-1.2,7.1-3,10.1-5.5c3-2.5,5.5-5.6,7.3-9.2
			C467.5,129.9,468.4,125.5,468.4,120.5z"/>
		<path class="st0" d="M493.6,165.8V75.2h17v90.6H493.6z"/>
		<path class="st0" d="M596.2,154.5c-3.4,4.5-8,8-13.6,10.3c-5.7,2.3-11.6,3.5-17.9,3.5c-7,0-13.4-1.2-19.2-3.6
			c-5.7-2.4-10.7-5.7-14.7-9.9c-4.1-4.2-7.2-9.3-9.4-15.1c-2.2-5.8-3.3-12.2-3.3-19.2c0-6.9,1.2-13.2,3.5-19.1
			c2.3-5.9,5.5-10.9,9.7-15.2c4.2-4.2,9.1-7.5,14.7-9.9c5.7-2.4,11.9-3.6,18.7-3.6c6,0,11.6,1.2,16.9,3.5c5.3,2.3,9.8,5.4,13.5,9.2
			L586,99c-2.9-3.2-6.1-5.6-9.6-7.4c-3.6-1.7-7.5-2.6-11.8-2.6c-4.6,0-8.7,0.8-12.4,2.5c-3.6,1.6-6.8,3.9-9.3,6.7
			c-2.6,2.8-4.5,6.1-5.8,10c-1.3,3.9-2,8-2,12.3c0,4.4,0.7,8.6,2.1,12.4c1.4,3.8,3.4,7.1,6,9.9c2.6,2.8,5.7,5,9.3,6.7
			c3.6,1.6,7.7,2.5,12.1,2.5c4.7,0,8.7-0.8,12.1-2.4c3.4-1.6,6.5-4.1,9.3-7.5L596.2,154.5z"/>
		<path class="st0" d="M712.6,146.5c-2.3,3.1-4.8,6-7.4,8.6c-2.6,2.6-5.5,4.9-8.7,6.9c-3.3,2-7,3.5-11.3,4.6
			c-4.2,1.1-9.2,1.6-14.8,1.6c-6.2,0-12.1-1.2-17.5-3.6c-5.5-2.4-10.3-5.8-14.4-10.1c-4.1-4.3-7.4-9.3-9.7-15.2
			c-2.4-5.8-3.6-12.1-3.6-18.9c0-6.8,1.2-13.1,3.6-18.9c2.4-5.8,5.6-10.9,9.7-15.2c4.1-4.3,8.9-7.6,14.4-10.1
			c5.5-2.4,11.3-3.6,17.5-3.6c5.1,0,9.7,0.5,13.7,1.4c4,0.9,7.6,2.2,10.7,3.8c3.1,1.6,5.8,3.4,8.1,5.5c2.3,2.1,4.3,4.3,6,6.6
			l-11.3,11.3c-2.9-4-6.4-7.1-10.6-9.1c-4.2-2.1-9.7-3.1-16.5-3.1c-4.3,0-8.2,0.8-11.6,2.5c-3.5,1.7-6.5,4-8.9,6.9
			c-2.5,2.9-4.4,6.2-5.7,10c-1.3,3.8-2,7.8-2,12.1c0,4.3,0.7,8.3,2,12.1c1.3,3.8,3.2,7.1,5.7,10c2.5,2.9,5.5,5.2,8.9,6.9
			c3.5,1.7,7.4,2.5,11.6,2.5c4.7,0,9.3-0.8,13.7-2.3c4.4-1.5,8.3-4.1,11.4-7.7v-14h-16.4l2.5-14.5h30.8V146.5z"/>
		<path class="st0" d="M770.4,165.8h-47.8V75.2h46.5l2.5,16.4h-32.1v20.1h28.3v16.4h-28.3v21.4H773L770.4,165.8z"/>
		<path class="st0" d="M854.1,165.8v-60.4h-0.3l-28.1,45.3l-28.1-45.3h-0.3v60.4h-17V75.2h17l28.3,46.5l28.3-46.5h17v90.6H854.1z"/>
		<path class="st0" d="M935.9,140.6c0,4.1-0.7,7.9-2.1,11.3s-3.3,6.3-5.8,8.7c-2.5,2.4-5.6,4.3-9.1,5.7c-3.6,1.3-7.5,2-11.9,2
			c-3.7,0-7-0.4-9.9-1.1c-2.9-0.8-5.5-1.8-7.9-3.1c-2.4-1.3-4.6-2.9-6.6-4.7c-2-1.8-3.9-3.9-5.8-6l11.3-11.3
			c0.9,1.3,1.9,2.5,3.1,3.6c1.1,1.2,2.5,2.2,4,3.1c1.5,0.9,3.2,1.7,5.2,2.3c1.9,0.6,4.2,0.9,6.7,0.9c3.2,0,6-0.9,8.4-2.8
			c2.4-1.9,3.6-4.7,3.6-8.5c0-2.9-0.9-5.2-2.8-7c-1.8-1.8-4.2-3.5-7-5c-2.8-1.5-5.8-3-9.1-4.6c-3.3-1.6-6.3-3.4-9.1-5.7
			c-2.8-2.2-5.1-4.9-7-8.2c-1.8-3.2-2.8-7.3-2.8-12.3c0-3.9,0.7-7.5,2.1-10.6c1.4-3.1,3.2-5.8,5.6-7.9c2.3-2.1,5.1-3.8,8.2-4.9
			c3.1-1.1,6.4-1.7,9.9-1.7c5.7,0,10.5,0.9,14.5,2.8c3.9,1.9,7.5,4.7,10.7,8.5l-9.4,11.3c-1.6-2.5-3.8-4.4-6.7-5.7
			c-2.9-1.3-5.9-1.9-9.1-1.9c-2.9,0-5.1,0.8-6.9,2.5c-1.7,1.6-2.6,4.2-2.6,7.6c0,2.9,0.9,5.2,2.8,6.9c1.9,1.8,4.3,3.4,7.1,4.8
			c2.8,1.4,5.9,2.9,9.2,4.3c3.3,1.4,6.4,3.3,9.2,5.5c2.8,2.2,5.2,5,7.1,8.4C934.9,131.1,935.9,135.4,935.9,140.6z"/>
	</g>
</g>
<g>
	<g>
		<polygon class="st1" points="143.1,177.5 161.7,177.3 152.1,209.3 		"/>
		<path class="st1" d="M143.1,177.5"/>
	</g>
	<g>
		<polygon class="st1" points="123.6,170.5 141.2,176.7 121.3,203.4 		"/>
		<path class="st1" d="M123.6,170.5"/>
	</g>
	<g>
		<polygon class="st1" points="107.8,157.3 122.2,169.1 94.3,187.4 		"/>
		<path class="st1" d="M107.8,157.3"/>
	</g>
	<g>
		<polygon class="st1" points="97.4,139.4 106.9,155.5 74.4,163.1 		"/>
		<path class="st1" d="M97.4,139.4"/>
	</g>
	<g>
		<polygon class="st1" points="93.7,119.1 97.2,137.4 64.1,133.5 		"/>
		<path class="st1" d="M93.7,119.1"/>
	</g>
	<g>
		<polygon class="st1" points="97.2,98.7 94.2,117.1 64.5,102.1 		"/>
		<path class="st1" d="M97.2,98.7"/>
	</g>
	<g>
		<polygon class="st1" points="107.5,80.8 98.4,97 75.6,72.7 		"/>
		<path class="st1" d="M107.5,80.8"/>
	</g>
	<g>
		<polygon class="st1" points="123.3,67.5 109.2,79.6 96,49 		"/>
		<path class="st1" d="M123.3,67.5"/>
	</g>
	<g>
		<polygon class="st1" points="142.7,60.3 125.3,66.9 123.4,33.6 		"/>
		<path class="st1" d="M142.7,60.3"/>
	</g>
	<g>
		<polygon class="st1" points="163.4,60.3 144.7,60.5 154.4,28.6 		"/>
		<path class="st1" d="M163.4,60.3"/>
	</g>
	<g>
		<polygon class="st1" points="182.8,67.3 165.2,61.1 185.2,34.4 		"/>
		<path class="st1" d="M182.8,67.3"/>
	</g>
	<g>
		<polygon class="st1" points="198.7,80.5 184.3,68.7 212.2,50.4 		"/>
		<path class="st1" d="M198.7,80.5"/>
	</g>
	<g>
		<polygon class="st1" points="209.1,98.4 199.6,82.4 232,74.7 		"/>
		<path class="st1" d="M209.1,98.4"/>
	</g>
	<g>
		<polygon class="st1" points="212.7,118.7 209.3,100.4 242.4,104.3 		"/>
		<path class="st1" d="M212.7,118.7"/>
	</g>
	<g>
		<polygon class="st1" points="209.2,139.1 212.2,120.7 242,135.7 		"/>
		<path class="st1" d="M209.2,139.1"/>
	</g>
	<g>
		<polygon class="st1" points="198.9,157 208.1,140.8 230.9,165.1 		"/>
		<path class="st1" d="M198.9,157"/>
	</g>
	<g>
		<polygon class="st1" points="183.1,170.3 197.3,158.2 210.4,188.9 		"/>
		<path class="st1" d="M183.1,170.3"/>
	</g>
	<g>
		<polygon class="st1" points="163.7,177.5 181.2,170.9 183,204.2 		"/>
		<path class="st1" d="M163.7,177.5"/>
	</g>
</g>
<g>
	<g>
		<polygon class="st1" points="147,154.8 158.4,154.7 152.5,174.2 		"/>
		<path class="st1" d="M147,154.8"/>
	</g>
	<g>
		<polygon class="st1" points="135.1,150.5 145.9,154.3 133.6,170.6 		"/>
		<path class="st1" d="M135.1,150.5"/>
	</g>
	<g>
		<polygon class="st1" points="125.4,142.4 134.2,149.6 117.1,160.8 		"/>
		<path class="st1" d="M125.4,142.4"/>
	</g>
	<g>
		<polygon class="st1" points="119,131.5 124.8,141.3 105,146 		"/>
		<path class="st1" d="M119,131.5"/>
	</g>
	<g>
		<polygon class="st1" points="116.8,119 118.9,130.2 98.6,127.8 		"/>
		<path class="st1" d="M116.8,119"/>
	</g>
	<g>
		<polygon class="st1" points="118.9,106.6 117.1,117.8 98.9,108.6 		"/>
		<path class="st1" d="M118.9,106.6"/>
	</g>
	<g>
		<polygon class="st1" points="125.2,95.6 119.7,105.5 105.7,90.6 		"/>
		<path class="st1" d="M125.2,95.6"/>
	</g>
	<g>
		<polygon class="st1" points="134.9,87.4 126.3,94.8 118.2,76.1 		"/>
		<path class="st1" d="M134.9,87.4"/>
	</g>
	<g>
		<polygon class="st1" points="146.8,83.1 136.1,87.1 135,66.7 		"/>
		<path class="st1" d="M146.8,83.1"/>
	</g>
	<g>
		<polygon class="st1" points="159.4,83 148,83.1 153.9,63.6 		"/>
		<path class="st1" d="M159.4,83"/>
	</g>
	<g>
		<polygon class="st1" points="171.3,87.3 160.6,83.5 172.8,67.2 		"/>
		<path class="st1" d="M171.3,87.3"/>
	</g>
	<g>
		<polygon class="st1" points="181.1,95.4 172.2,88.2 189.3,77 		"/>
		<path class="st1" d="M181.1,95.4"/>
	</g>
	<g>
		<polygon class="st1" points="187.4,106.3 181.6,96.5 201.5,91.9 		"/>
		<path class="st1" d="M187.4,106.3"/>
	</g>
	<g>
		<polygon class="st1" points="189.7,118.8 187.5,107.6 207.8,110 		"/>
		<path class="st1" d="M189.7,118.8"/>
	</g>
	<g>
		<polygon class="st1" points="187.5,131.3 189.3,120 207.6,129.2 		"/>
		<path class="st1" d="M187.5,131.3"/>
	</g>
	<g>
		<polygon class="st1" points="181.2,142.2 186.8,132.3 200.8,147.2 		"/>
		<path class="st1" d="M181.2,142.2"/>
	</g>
	<g>
		<polygon class="st1" points="171.5,150.4 180.2,143 188.2,161.7 		"/>
		<path class="st1" d="M171.5,150.4"/>
	</g>
	<g>
		<polygon class="st1" points="159.7,154.8 170.3,150.7 171.5,171.1 		"/>
		<path class="st1" d="M159.7,154.8"/>
	</g>
</g>
</svg>
