<?xml version="1.0" encoding="utf-8"?>
<!-- Generator: Adobe Illustrator 28.3.0, SVG Export Plug-In . SVG Version: 6.00 Build 0)  -->
<svg version="1.1" id="Layer_1" xmlns="http://www.w3.org/2000/svg" xmlns:xlink="http://www.w3.org/1999/xlink" x="0px" y="0px"
	 viewBox="0 0 204 201.1" style="enable-background:new 0 0 204 201.1;" xml:space="preserve">
<style type="text/css">
	.st0{fill-rule:evenodd;clip-rule:evenodd;fill:#F79036;}
</style>
<g>
	<g>
		<polygon class="st0" points="87.9,159.2 106.5,159 96.9,190.9 		"/>
		<path class="st0" d="M87.9,159.2"/>
	</g>
	<g>
		<polygon class="st0" points="68.4,152.2 86,158.3 66,185.1 		"/>
		<path class="st0" d="M68.4,152.2"/>
	</g>
	<g>
		<polygon class="st0" points="52.5,139 66.9,150.8 39.1,169 		"/>
		<path class="st0" d="M52.5,139"/>
	</g>
	<g>
		<polygon class="st0" points="42.2,121.1 51.6,137.1 19.2,144.7 		"/>
		<path class="st0" d="M42.2,121.1"/>
	</g>
	<g>
		<polygon class="st0" points="38.5,100.8 41.9,119 8.8,115.1 		"/>
		<path class="st0" d="M38.5,100.8"/>
	</g>
	<g>
		<polygon class="st0" points="42,80.4 39,98.8 9.2,83.7 		"/>
		<path class="st0" d="M42,80.4"/>
	</g>
	<g>
		<polygon class="st0" points="52.3,62.5 43.2,78.7 20.3,54.4 		"/>
		<path class="st0" d="M52.3,62.5"/>
	</g>
	<g>
		<polygon class="st0" points="68.1,49.1 54,61.3 40.8,30.6 		"/>
		<path class="st0" d="M68.1,49.1"/>
	</g>
	<g>
		<polygon class="st0" points="87.5,42 70.1,48.6 68.2,15.3 		"/>
		<path class="st0" d="M87.5,42"/>
	</g>
	<g>
		<polygon class="st0" points="108.1,41.9 89.5,42.1 99.1,10.2 		"/>
		<path class="st0" d="M108.1,41.9"/>
	</g>
	<g>
		<polygon class="st0" points="127.6,48.9 110,42.8 130,16.1 		"/>
		<path class="st0" d="M127.6,48.9"/>
	</g>
	<g>
		<polygon class="st0" points="143.5,62.2 129.1,50.4 156.9,32.1 		"/>
		<path class="st0" d="M143.5,62.2"/>
	</g>
	<g>
		<polygon class="st0" points="153.8,80 144.4,64 176.8,56.4 		"/>
		<path class="st0" d="M153.8,80"/>
	</g>
	<g>
		<polygon class="st0" points="157.5,100.4 154.1,82.1 187.2,86 		"/>
		<path class="st0" d="M157.5,100.4"/>
	</g>
	<g>
		<polygon class="st0" points="154,120.7 157,102.4 186.8,117.4 		"/>
		<path class="st0" d="M154,120.7"/>
	</g>
	<g>
		<polygon class="st0" points="143.7,138.7 152.8,122.4 175.7,146.7 		"/>
		<path class="st0" d="M143.7,138.7"/>
	</g>
	<g>
		<polygon class="st0" points="127.9,152 142,139.9 155.2,170.5 		"/>
		<path class="st0" d="M127.9,152"/>
	</g>
	<g>
		<polygon class="st0" points="108.5,159.1 125.9,152.6 127.8,185.8 		"/>
		<path class="st0" d="M108.5,159.1"/>
	</g>
</g>
<g>
	<g>
		<polygon class="st0" points="91.8,136.5 103.2,136.3 97.3,155.9 		"/>
		<path class="st0" d="M91.8,136.5"/>
	</g>
	<g>
		<polygon class="st0" points="79.9,132.2 90.6,135.9 78.4,152.3 		"/>
		<path class="st0" d="M79.9,132.2"/>
	</g>
	<g>
		<polygon class="st0" points="70.2,124.1 79,131.3 61.9,142.5 		"/>
		<path class="st0" d="M70.2,124.1"/>
	</g>
	<g>
		<polygon class="st0" points="63.8,113.1 69.6,122.9 49.7,127.6 		"/>
		<path class="st0" d="M63.8,113.1"/>
	</g>
	<g>
		<polygon class="st0" points="61.6,100.7 63.7,111.9 43.4,109.5 		"/>
		<path class="st0" d="M61.6,100.7"/>
	</g>
	<g>
		<polygon class="st0" points="63.7,88.2 61.9,99.5 43.7,90.3 		"/>
		<path class="st0" d="M63.7,88.2"/>
	</g>
	<g>
		<polygon class="st0" points="70,77.2 64.4,87.2 50.4,72.3 		"/>
		<path class="st0" d="M70,77.2"/>
	</g>
	<g>
		<polygon class="st0" points="79.7,69.1 71,76.5 63,57.7 		"/>
		<path class="st0" d="M79.7,69.1"/>
	</g>
	<g>
		<polygon class="st0" points="91.6,64.7 80.9,68.7 79.7,48.3 		"/>
		<path class="st0" d="M91.6,64.7"/>
	</g>
	<g>
		<polygon class="st0" points="104.2,64.7 92.8,64.8 98.7,45.2 		"/>
		<path class="st0" d="M104.2,64.7"/>
	</g>
	<g>
		<polygon class="st0" points="116.1,68.9 105.4,65.2 117.6,48.8 		"/>
		<path class="st0" d="M116.1,68.9"/>
	</g>
	<g>
		<polygon class="st0" points="125.8,77 117,69.8 134.1,58.6 		"/>
		<path class="st0" d="M125.8,77"/>
	</g>
	<g>
		<polygon class="st0" points="132.2,88 126.4,78.2 146.3,73.5 		"/>
		<path class="st0" d="M132.2,88"/>
	</g>
	<g>
		<polygon class="st0" points="134.4,100.4 132.3,89.2 152.6,91.6 		"/>
		<path class="st0" d="M134.4,100.4"/>
	</g>
	<g>
		<polygon class="st0" points="132.3,112.9 134.1,101.7 152.4,110.9 		"/>
		<path class="st0" d="M132.3,112.9"/>
	</g>
	<g>
		<polygon class="st0" points="126,123.9 131.6,113.9 145.6,128.8 		"/>
		<path class="st0" d="M126,123.9"/>
	</g>
	<g>
		<polygon class="st0" points="116.3,132 125,124.6 133,143.4 		"/>
		<path class="st0" d="M116.3,132"/>
	</g>
	<g>
		<polygon class="st0" points="104.4,136.4 115.1,132.4 116.3,152.8 		"/>
		<path class="st0" d="M104.4,136.4"/>
	</g>
</g>
</svg>
