<?xml version="1.0" encoding="UTF-8"?>
<svg width="18px" height="13px" viewBox="0 0 18 13" version="1.1" xmlns="http://www.w3.org/2000/svg" xmlns:xlink="http://www.w3.org/1999/xlink">
    <title>4A4C53E3-CF1C-4AA0-AF65-18B931BA91C7</title>
    <g id="header/afterScroll-V3" stroke="none" stroke-width="1" fill="none" fill-rule="evenodd">
        <g id="header01_1366" transform="translate(-1128.000000, -1657.000000)" fill="#333333" fill-rule="nonzero">
            <g id="youtube" transform="translate(1128.000000, 1657.000000)">
                <path d="M17.6017549,1.85748867 L17.6242546,2.00737078 C17.4067573,1.2204897 16.8195145,0.613314216 16.0732736,0.392314574 L16.0575238,0.388491051 C14.654291,1.05252401e-05 9.00761023,1.05252401e-05 9.00761023,1.05252401e-05 C9.00761023,1.05252401e-05 3.37517928,-0.00762595326 1.95769665,0.388491051 C1.19720597,0.613314216 0.609213181,1.2204897 0.395465801,1.99131198 L0.391715847,2.00737078 C-0.132527726,4.79930742 -0.13627768,8.15406669 0.414965562,11.1432971 L0.391715847,10.9918856 C0.609213181,11.7787667 1.19645598,12.3859422 1.94269684,12.6069418 L1.95844664,12.6107653 C3.36017946,13 9.00836022,13 9.00836022,13 C9.00836022,13 14.6400412,13 16.0582738,12.6107653 C16.8195145,12.3859422 17.4075073,11.7787667 17.6212546,11.0079444 L17.6250046,10.9918856 C17.8635017,9.69341713 18,8.19918426 18,6.6728338 C18,6.61701036 18,6.56042221 17.99925,6.50383407 C18,6.45183415 18,6.38989308 18,6.327952 C18,4.80083683 17.8635017,3.30660396 17.6017549,1.85748867 L17.6017549,1.85748867 Z M7.20613231,9.29194719 L7.20613231,3.71495624 L11.9055747,6.50765759 L7.20613231,9.29194719 Z" id="Shape"></path>
            </g>
        </g>
    </g>
</svg>